# xmcd
#
# Track frame offsets: 
#        150
#        18985
#        32661
#        44111
#        65015
#        76604
#        85036
#        101711
#        120145
#        133073
#        145396
#        162133
#        175443
#
# Disc length: 2469 seconds
#
# Revision: 0
# Processed by: cddbd v1.5.2PL0 Copyright (c) Steve Scherf et al.
# Submitted via: ExactAudioCopy v0.95a5
#
DISCID=a709a30d
DTITLE=Bianca De Leon - Outlaws and Lovers
DYEAR=2001
DGENRE=Country
TTITLE0=I'd Rather Miss Texas
TTITLE1=San Antonio Express
TTITLE2=High Timing' Girl
TTITLE3=Carlos
TTITLE4=Smuggler's Moon
TTITLE5=Telephone
TTITLE6=Mr. Whiskey
TTITLE7=Si Me Requerdas (If You Remember Me)
TTITLE8=Can't Fool an Old Fool
TTITLE9=Merle
TTITLE10=Waitin' Round to Die
TTITLE11=Date Gets Shot
TTITLE12=Ballad of Dylan Thompson
EXTD=
EXTT0=
EXTT1=
EXTT2=
EXTT3=
EXTT4=
EXTT5=
EXTT6=
EXTT7=
EXTT8=
EXTT9=
EXTT10=
EXTT11=
EXTT12=
PLAYORDER=
